# xmcd
#
# Track frame offsets: 
#        150
#        18260
#        33670
#        51812
#
# Disc length: 893 seconds
#
# Revision: 1
# Processed by: cddbd v1.5.2PL0 Copyright (c) Steve Scherf et al.
# Submitted via: ExactAudioCopy v0.99pb5
#
DISCID=2a037b04
DTITLE=TAKUI - RE-SET
DYEAR=2003
DGENRE=Anime
TTITLE0=RE-SET
TTITLE1=LAMBRETTA
TTITLE2=RE-SET (VOCAL OFF VERSION)
TTITLE3=LAMBRETTA (VOCAL OFF VERSION)
EXTD=YEAR: 2003
EXTT0=
EXTT1=
EXTT2=
EXTT3=
PLAYORDER=
